<?xml version="1.0" encoding="UTF-8" standalone="no"?>
<!-- Created with Inkscape (http://www.inkscape.org/) -->

<svg
   width="205.28688mm"
   height="206.22708mm"
   viewBox="0 0 205.28688 206.22708"
   version="1.1"
   id="svg1"
   xml:space="preserve"
   xmlns="http://www.w3.org/2000/svg"
   xmlns:svg="http://www.w3.org/2000/svg">
   <style>
     .image-style { fill:#000000;stroke-width:4.24963; }
     @media (prefers-color-scheme: dark) {
       .image-style { fill:#ffffff;stroke-width:4.24963; }
     }
   </style>
   <defs
     id="defs1" />
   <g
     id="layer1"
     transform="translate(-2.019415,-42.191912)">
     <path
       class="image-style"
       d="m 188.80873,247.67237 c -2.97173,-0.27537 -18.60232,-1.5176 -34.73461,-2.76092 -60.597008,-4.67034 -80.356276,-6.45217 -83.093185,-7.49331 -2.4149,-0.91858 -2.666773,-2.1283 -1.762278,-8.46416 l 1.055301,-7.39241 -5.956492,0.86489 C 51.653353,224.26535 8.0472642,228.18615 7.382469,227.5457 6.9971672,227.17438 5.7661244,218.64924 4.6466522,208.60056 3.2353031,195.93177 3.1113127,190.17697 4.2420393,189.83048 5.1390199,189.55553 28.797776,187.11658 56.817036,184.4103 L 107.76118,179.48983 54.887335,179.0983 C 25.806724,178.88317 2.0161809,178.21379 2.0194155,177.61102 2.057209,170.93597 7.539026,148.14997 11.94755,136.35834 c 10.655706,-28.50124 8.724076,-26.551 28.063957,-28.33406 l 10.982171,-1.0125 2.793571,10.95506 c 2.597435,10.1859 2.884145,10.6418 4.083198,6.4932 0.709284,-2.45403 1.536467,-6.4697 1.838204,-8.92373 0.31437,-2.55689 1.461926,-4.46186 2.687885,-4.46186 1.651386,0 2.018894,2.12015 1.611345,9.29554 -0.290446,5.11255 -0.107868,9.29556 0.40545,9.29556 1.409502,0 8.613231,-16.32548 8.613231,-19.5198 0,-2.99838 -2.502409,-3.57119 -6.078251,-1.39134 -1.477161,0.90052 -4.23921,0.35958 -8.26344,-1.61831 -5.452451,-2.67987 -5.974455,-3.43176 -5.328044,-7.674861 0.394116,-2.587156 -0.01679,-5.835255 -0.91306,-7.218001 -2.553026,-3.938523 1.052447,-10.170889 5.883964,-10.170889 2.430848,0 3.892522,-0.837743 3.892522,-2.230934 0,-2.012097 -1.832916,-2.891447 -5.017243,-2.407053 -1.40031,0.213024 -1.487611,-1.727181 -0.220771,-4.907743 1.062727,-2.668126 9.905086,-3.234742 14.390336,-0.922123 1.525889,0.786746 3.666673,3.506026 4.757354,6.042839 1.884198,4.382395 2.298889,4.562247 8.316498,3.606898 3.483374,-0.553026 7.254726,-1.723383 8.380746,-2.600808 1.49806,-1.167276 2.423671,-1.022386 3.449846,0.539978 0.771351,1.174414 1.413102,2.543662 1.426078,3.042771 0.05124,1.96181 12.559853,26.923806 13.188413,26.318256 0.36832,-0.35488 -0.25645,-5.77645 -1.38845,-12.04794 -1.13199,-6.271504 -1.7454,-11.704035 -1.36314,-12.072316 1.1206,-1.079616 5.07707,0.814763 4.2839,2.051168 -0.39755,0.6197 0.62343,4.732569 2.26884,9.139701 l 2.9916,8.012977 0.0557,-9.395772 c 0.0536,-9.041651 0.18661,-9.3577 3.52917,-8.385652 8.11352,2.359517 19.68294,9.86566 19.68294,12.770117 0,1.622747 0.78198,5.942367 1.73772,9.599117 1.35573,5.18709 2.30922,6.47393 4.33739,5.85377 1.97556,-0.60409 4.35077,2.15323 9.89386,11.48554 l 7.29419,12.28048 -0.56373,-10.78283 c -0.31004,-5.93056 -0.013,-10.78284 0.66009,-10.78284 0.67311,0 2.52382,2.84444 4.1127,6.32099 l 2.88887,6.32096 1.12354,-7.06461 c 0.61794,-3.88555 1.25464,-7.06219 1.41489,-7.05922 0.80245,0.0151 24.59479,8.79901 24.91326,9.19799 1.44464,1.80993 8.13616,54.08848 7.00907,54.75957 -0.84457,0.50286 -0.82485,6.16338 0.0493,14.17125 0.80061,7.33367 1.468,13.72785 1.48309,14.20928 0.0269,0.8614 -36.83717,4.75893 -64.03866,6.77058 -12.01953,0.88889 -13.0608,1.16892 -7.71882,2.07564 3.39629,0.57647 18.33218,1.89616 33.19086,2.93267 18.16157,1.26695 27.55225,2.51529 28.65257,3.80899 1.03915,1.2218 1.22762,5.08387 0.5162,10.57805 -0.61629,4.75947 -1.17914,10.15952 -1.25079,12.00005 -0.0716,1.84049 -0.65129,3.23926 -1.28809,3.10838 -0.6368,-0.13082 -3.58925,-0.46316 -6.56098,-0.73831 z M 178.657,231.91671 c 0.64949,-3.52019 0.43387,-5.57732 -0.58464,-5.57732 -0.88754,0 -1.61371,1.67319 -1.61371,3.71823 0,2.045 -0.58319,3.7182 -1.29596,3.7182 -0.71279,0 -2.08728,-1.6732 -3.05444,-3.7182 -2.23768,-4.73156 -4.91217,-4.79778 -4.91217,-0.12176 0,1.97813 -0.42166,4.65524 -0.93705,5.94919 -0.51537,1.29391 -0.21418,2.35255 0.66935,2.35255 0.88351,0 1.82618,-1.84053 2.09487,-4.09002 l 0.48848,-4.09003 3.02548,4.81907 c 3.45575,5.50442 4.66601,4.91903 6.11979,-2.96001 z m 14.50445,4.46186 c -0.31702,-2.15054 -1.73456,-3.51622 -3.96677,-3.82167 -1.91042,-0.26159 -3.47347,-1.15114 -3.47347,-1.97727 0,-0.89423 2.03025,-1.12491 5.01722,-0.57012 4.73338,0.87918 4.8477,0.80174 2.02059,-1.36911 -5.72642,-4.39712 -9.87604,-1.77664 -9.30974,5.87906 0.41804,5.65148 -0.0504,5.20551 5.46681,5.20551 4.03116,0 4.66502,-0.49964 4.24536,-3.3464 z m -7.02492,-0.65882 c 1.50204,-0.37694 3.58611,-0.3524 4.63129,0.055 1.04518,0.40746 -0.18376,0.71597 -2.73097,0.68563 -2.5472,-0.0301 -3.40235,-0.36357 -1.90032,-0.74071 z m -23.86751,-5.38912 c -0.41201,-4.09743 -1.12621,-4.7958 -5.30494,-5.1874 -4.03538,-0.37821 -4.98642,0.15233 -5.78774,3.22821 -1.81434,6.9645 2.5683,10.9692 8.77703,8.02009 2.00217,-0.95099 2.6571,-2.66519 2.31565,-6.0609 z m -7.88425,3.99236 c -0.59539,-0.57359 -1.08254,-2.26994 -1.08254,-3.7696 0,-1.93666 1.14937,-2.72673 3.96678,-2.72673 3.22598,0 3.87464,0.62209 3.47345,3.33122 -0.48825,3.29707 -4.26769,5.17866 -6.35769,3.16511 z m -11.88886,-4.26537 c 0,-8.69453 -2.18161,-8.69359 -2.76342,9.2e-4 -0.26216,3.91788 0.21774,6.69163 1.15782,6.69163 0.88308,0 1.6056,-3.01177 1.6056,-6.69279 z m -14.01838,-4.91765 c 3.55373,-1.14126 1.42648,-3.26246 -3.27175,-3.26246 -3.84224,0 -4.52836,0.39671 -3.08753,1.78477 1.01889,0.98158 1.92364,4.16069 2.01055,7.06459 l 0.15803,5.2799 1.26119,-5.16554 c 0.69368,-2.84103 2.01194,-5.40657 2.92951,-5.70126 z m -18.12501,2.57551 c 0.32994,-3.33318 0.0556,-6.3844 -0.60973,-6.78056 -0.66529,-0.39627 -1.20963,1.27237 -1.20963,3.70779 0,2.43537 -0.42165,5.48665 -0.93702,6.78055 -0.51541,1.29391 -0.24092,2.35256 0.60973,2.35256 0.85072,0 1.8167,-2.72715 2.14665,-6.06034 z m -28.835156,3.08578 c 0.541108,-0.84355 -0.755873,-1.4873 -2.996415,-1.4873 -4.872952,0 -5.235294,-2.54976 -0.477057,-3.35682 3.459708,-0.58681 3.458191,-0.59533 -0.385726,-2.14908 -3.889497,-1.57213 -5.753258,-0.0301 -6.066542,5.02501 -0.171666,2.76983 8.330219,4.45563 9.925956,1.96819 z m 16.981349,-4.46187 c 0,-4.78574 -0.404611,-5.24307 -5.017197,-5.67158 -2.759492,-0.25643 -5.017248,0.16178 -5.017248,0.92955 0,0.76761 -0.443725,3.53306 -0.986045,6.14549 -0.98512,4.74537 -0.980421,4.74943 5.017237,4.27595 5.737986,-0.45298 6.003253,-0.70392 6.003253,-5.67941 z m -8.490669,0 c 0,-4.43055 1.985521,-5.56358 5.731059,-3.2704 2.798399,1.71329 0.60041,7.73227 -2.823582,7.73227 -2.201379,0 -2.907477,-1.08364 -2.907477,-4.46187 z m -68.894791,-9.34437 c 2.244831,-1.58143 2.527596,-3.22051 1.652352,-9.5772 -1.149567,-8.34899 -2.811575,-9.74479 -9.962507,-8.36689 -4.3548782,0.83912 -4.6143936,1.29094 -4.6143936,8.03338 0,10.32416 5.9074306,14.85401 12.9245486,9.91071 z m -9.837052,-4.01668 c 0,-1.91062 1.197846,-2.52776 4.645966,-2.39381 6.054409,0.23537 6.09445,2.85188 0.06168,4.04055 -3.80547,0.74983 -4.707783,0.43419 -4.707783,-1.64674 z m -1.5437243,-8.20462 c 0,-1.55811 1.6295153,-2.23091 5.4031313,-2.23091 6.062684,0 7.241509,2.15298 1.929705,3.52443 -5.508781,1.42231 -7.3328363,1.10051 -7.3328363,-1.29352 z m 34.4397943,9.68769 c 1.535963,-0.0129 2.434919,-0.578 1.997655,-1.25962 -0.437264,-0.68164 -2.811659,-0.95417 -5.276378,-0.60566 -4.346742,0.61464 -4.519708,0.39499 -5.756455,-7.31259 -1.01253,-6.31018 -1.40119,-7.05581 -1.887688,-3.62133 -0.337035,2.37872 -0.164112,6.62859 0.384044,9.44411 0.850814,4.36936 1.491096,4.99145 4.37142,4.2473 1.856001,-0.47959 4.631271,-0.88106 6.167275,-0.89221 z m 12.392597,-3.64144 c 0.902817,-2.26657 10.286739,-2.82709 10.286739,-0.61442 0,0.69356 0.662738,1.26095 1.472755,1.26095 2.220568,0 -5.687873,-15.54884 -8.167786,-16.05873 -1.467969,-0.30161 -2.897281,2.41302 -4.502373,8.55191 -1.293407,4.94679 -1.808864,8.99414 -1.145456,8.99414 0.663408,0 1.58868,-0.96024 2.056121,-2.13385 z m 1.132697,-5.81365 c 0.0596,-0.94595 0.645276,-3.04353 1.301298,-4.66129 1.165813,-2.87475 1.233305,-2.8685 2.979044,0.27407 2.351312,4.23274 2.305477,4.42053 -1.301341,5.32921 -1.798707,0.45316 -3.04221,0.0598 -2.979001,-0.94199 z m 31.924548,4.15173 c 1.061299,-0.31495 1.929696,-1.54639 1.929696,-2.73636 0,-1.87344 -0.629111,-1.86126 -4.690323,0.0908 -6.389302,3.07079 -9.203526,1.69552 -9.203526,-4.49767 0,-4.59531 0.481707,-5.15281 5.017209,-5.80626 2.805354,-0.40404 5.564216,0.013 6.258008,0.94667 0.753567,1.0139 1.051734,0.50145 0.759272,-1.30506 -0.342492,-2.11408 -1.873291,-3.10539 -5.292536,-3.42671 -6.752486,-0.6346 -10.397377,3.19725 -9.290701,9.76742 1.484759,8.81472 4.08412,10.06262 14.512901,6.96733 z m 10.670907,-6.98709 c -0.428287,-1.0225 -0.77867,-0.18588 -0.77867,1.85912 0,2.04503 0.350473,2.8816 0.77867,1.85912 0.42824,-1.02251 0.42824,-2.69571 0,-3.71824 z m 7.51234,-0.45179 -4.58719,-3.53157 4.49006,-4.51518 c 2.46957,-2.48336 3.78654,-4.51524 2.92663,-4.51524 -0.85993,0 -3.19507,1.67325 -5.18924,3.71825 -4.47294,4.58707 -5.772021,4.65996 -6.629299,0.37174 -0.626818,-3.13534 -0.682296,-3.14966 -0.879237,-0.22762 -0.230421,3.41551 3.066176,7.5122 9.052306,11.24997 5.59857,3.49578 6.20547,1.59877 0.81597,-2.55048 z m 25.30048,3.20257 c 1.22728,-1.42468 1.39767,-4.36227 0.53919,-9.29555 l -1.25513,-7.21264 h -6.13926 c -6.0241,0 -6.14853,0.10885 -6.63264,5.80736 -0.8459,9.95705 0.59331,12.78376 6.50881,12.78376 2.85159,0 5.99217,-0.93733 6.97903,-2.08293 z m -10.67881,-3.42123 c 0,-1.2168 2.00067,-1.9323 5.40314,-1.9323 2.97175,0 5.40317,0.59605 5.40317,1.3246 0,0.72848 -2.43142,1.59801 -5.40317,1.93224 -3.72616,0.4191 -5.40314,0.008 -5.40314,-1.32454 z m -1.54377,-7.88146 c 0,-2.46923 0.74555,-2.76345 5.01722,-1.9801 5.25026,0.96281 6.73774,1.62247 5.66045,2.51012 -0.35379,0.29172 -2.90098,0.94405 -5.66045,1.4501 -4.27167,0.78338 -5.01722,0.48913 -5.01722,-1.98012 z m 33.09035,8.96054 c 3.32903,-1.2194 3.95989,-2.38719 3.95989,-7.33019 0,-9.53193 -6.19601,-13.2015 -13.71895,-8.12498 -2.96514,2.00084 -3.44703,3.33506 -2.73384,7.56912 1.48254,8.80158 4.60772,10.77432 12.4929,7.88605 z m -8.96485,-3.79619 c -0.53302,-1.3382 -0.96908,-4.05148 -0.96908,-6.02962 0,-3.13048 0.71231,-3.5966 5.49634,-3.5966 5.40734,0 5.4886,0.0903 5.01722,5.57736 -0.40968,4.76899 -1.06582,5.64288 -4.52725,6.0296 -2.63782,0.29475 -4.38576,-0.39541 -5.01723,-1.98074 z m 32.09552,1.36933 c 2.50363,-0.9256 3.41773,-9.78953 1.50485,-14.59209 -0.95005,-2.38522 -7.42334,-3.16349 -12.05867,-1.44982 -2.96631,1.09665 -3.40751,12.44493 -0.58939,15.15994 1.99718,1.92412 7.20859,2.33658 11.14321,0.88197 z m -10.67181,-6.49736 c -1.28929,-5.6554 -0.51088,-6.74649 5.10729,-7.1589 3.70166,-0.27193 4.75853,0.35541 5.51915,3.27506 1.42357,5.46453 -0.38208,8.3094 -5.27405,8.3094 -3.56293,0 -4.52476,-0.79527 -5.35239,-4.42556 z m 23.22225,0.46229 -1.0325,-3.96328 5.59782,4.11348 c 3.0788,2.2624 6.0721,3.65654 6.65181,3.098 0.9732,-0.93755 -1.73028,-3.41812 -7.43183,-6.81899 -1.93469,-1.15398 -1.58793,-2.00613 2.10782,-5.17994 2.43291,-2.08927 3.97153,-4.23409 3.41917,-4.76629 -0.55238,-0.53216 -2.89029,0.99697 -5.19537,3.39807 -4.09705,4.26773 -4.20209,4.29114 -4.68434,1.04384 -1.00297,-6.75376 -2.57662,-3.05373 -2.0654,4.85625 0.29087,4.50017 1.23452,8.18213 2.09706,8.18213 0.92778,0 1.14659,-1.61859 0.53576,-3.96327 z M 74.570419,81.357207 c 0,-2.216004 -7.092381,-4.845817 -8.753295,-3.245664 -0.489895,0.471956 -0.47932,1.890891 0.02518,3.153182 1.190032,2.987787 8.729828,3.067656 8.729828,0.0925 z m 82.205271,30.963343 c -4.62892,-1.57858 -6.56097,-3.07689 -6.56097,-5.08808 0,-1.56785 -0.68146,-2.85063 -1.51436,-2.85063 -2.02148,0 -3.49498,-6.072766 -3.71166,-15.296964 -0.17392,-7.405226 -0.0506,-7.616822 6.76976,-11.622401 10.86969,-6.38366 16.82846,-5.517695 18.92953,2.750935 0.66556,2.619309 0.18626,3.346392 -2.20587,3.346392 -4.30135,0 -3.02436,5.068341 1.43131,5.68077 2.97853,0.409409 3.45768,1.376234 3.45768,6.976846 0,3.575871 -0.69468,6.915212 -1.54375,7.420772 -0.84907,0.50556 -1.54375,2.52935 -1.54375,4.4973 0,2.88353 -4.15885,7.09414 -6.4595,6.53993 -0.26808,-0.0645 -3.43987,-1.12427 -7.04842,-2.35487 z m 3.37739,-22.187854 c 1.34206,-1.292966 2.04535,-2.966161 1.56291,-3.718221 -1.15964,-1.807703 -7.04491,-1.706675 -9.95753,0.170953 -2.0043,1.29207 -1.91275,1.788911 0.681,3.69543 3.77473,2.774595 4.6983,2.75687 7.71362,-0.14819 z M 102.69222,79.08387 C 99.904235,77.44623 97.248415,74.938937 96.790412,73.512108 96.332419,72.085273 95.321989,69.76848 94.545042,68.363679 93.768055,66.958876 93.573509,61.743174 94.112695,56.77323 95.340827,45.452943 99.738316,41.196777 108.97966,42.384089 c 7.46312,0.958855 10.35983,3.316317 10.35983,8.431262 0,3.543091 -0.50254,3.980954 -3.85941,3.362722 -4.02709,-0.741667 -4.75549,0.431566 -2.44781,3.942749 0.75039,1.141709 2.47647,1.664673 3.83577,1.162146 1.98122,-0.732451 2.47145,0.137817 2.47145,4.387482 0,2.915644 -0.98755,7.077633 -2.19456,9.248869 -1.20698,2.171233 -2.57457,5.118936 -3.03905,6.550452 -1.11063,3.422857 -5.16274,3.285853 -11.41366,-0.385912 z m 4.24106,-21.486442 c 2.47568,-2.87389 0.74617,-5.270658 -3.80329,-5.270658 -4.549469,0 -6.278975,2.396768 -3.803252,5.270658 2.377002,2.759373 5.229492,2.759373 7.606542,0 z"
       id="path1" />
  </g>
</svg>
